<svg width="304" height="302" viewBox="0 0 304 302" fill="none" xmlns="http://www.w3.org/2000/svg">
<path d="M132.156 126.684L151.937 0L165.826 78.2833C167.846 78.2833 175.646 82.4921 179.294 84.5965L183.924 78.2833H192.341V125.001H183.924C181.23 110.859 172.139 97.5034 167.93 92.5932L175.085 129.21L303.453 150.674L197.392 170.456C206.146 205.473 178.593 222.083 163.722 226.012L151.937 301.77L138.469 226.853L130.051 224.749L120.371 221.382L112.374 218.015L106.903 224.749H99.7481L98.4855 173.402L106.903 176.348C115.657 204.631 130.192 213.946 136.365 215.069L128.789 170.456L0 150.674L97.2228 133.839L101.853 142.678L106.903 148.991L114.9 156.146L127.105 162.038L154.319 172.942C155.19 173.291 156.22 173.931 156.961 174.507C158.538 175.734 160.064 176.7 161.776 177.729C168.3 181.652 169.145 189.029 168.772 192.762L165.826 215.069L173.823 209.597C174.664 208.475 176.769 203.537 178.452 192.762C180.136 181.988 169.894 171.718 164.563 167.93L151.937 162.038L128.789 152.779L116.583 146.045L110.27 138.89C105.921 134.12 98.4855 120.539 103.536 104.378C108.587 88.2161 123.317 79.6863 130.051 77.4416L127.105 91.3306C115.56 109.849 125.381 123.458 132.156 126.684Z" fill="url(#paint0_linear_124_1342)"/>
<path d="M192.467 228.227C213.987 220.51 216.703 202.524 215.372 194.495C221.129 214.663 240.033 218.495 248.766 217.89C228.267 223.708 224.578 242.3 225.295 250.87C220.41 229.857 201.374 227.02 192.467 228.227Z" fill="white"/>
<path d="M57.2397 63.9732C79.7988 60.2695 85.7192 43.0696 85.8595 34.9326C87.8797 55.8082 105.781 62.9912 114.479 63.9732C93.2669 65.9934 86.2803 83.6142 85.4386 92.172C84.4285 70.6231 66.2185 64.3941 57.2397 63.9732Z" fill="white"/>
<defs>
<linearGradient id="paint0_linear_124_1342" x1="151.727" y1="-23.9901" x2="151.727" y2="301.77" gradientUnits="userSpaceOnUse">
<stop stop-color="#0044C7"/>
<stop offset="1" stop-color="#336DDC"/>
</linearGradient>
</defs>
</svg>
